<?xml version="1.0" standalone="no"?>
<!DOCTYPE svg PUBLIC "-//W3C//DTD SVG 20010904//EN"
 "http://www.w3.org/TR/2001/REC-SVG-20010904/DTD/svg10.dtd">
<svg version="1.0" xmlns="http://www.w3.org/2000/svg"
 width="500.000000pt" height="500.000000pt" viewBox="0 0 500.000000 500.000000"
 preserveAspectRatio="xMidYMid meet">

<g transform="translate(0.000000,500.000000) scale(0.100000,-0.100000)"
fill="#000000" stroke="none">
<path d="M2655 4019 c-335 -43 -587 -102 -832 -196 -72 -28 -93 -40 -93 -55 0
-29 22 -31 76 -8 180 78 453 148 734 189 504 75 1055 9 1419 -169 164 -80 333
-218 424 -345 50 -71 113 -199 133 -270 27 -98 30 -301 5 -412 -38 -174 -116
-342 -241 -515 -67 -94 -312 -335 -424 -418 -193 -143 -454 -292 -666 -382
-230 -98 -560 -192 -795 -227 -44 -7 -107 -16 -140 -21 -187 -29 -560 -21
-770 15 -325 56 -615 181 -817 352 -241 205 -376 534 -339 827 26 203 89 371
207 554 47 72 52 85 42 102 -7 11 -16 20 -20 20 -11 0 -133 -191 -174 -272
-158 -314 -175 -666 -45 -943 119 -254 351 -463 665 -598 340 -146 815 -198
1286 -141 315 38 698 140 933 248 32 14 60 26 63 26 24 0 337 171 449 245 423
279 689 578 830 930 85 214 96 450 30 650 -84 255 -321 507 -591 631 -197 90
-420 147 -704 179 -139 16 -530 18 -645 4z"/>
<path d="M2670 3904 c-319 -38 -592 -102 -815 -192 -94 -37 -100 -41 -103 -71
l-3 -31 64 29 c362 163 918 250 1343 211 524 -48 894 -208 1099 -475 108 -140
149 -266 149 -455 1 -130 -17 -221 -65 -327 -10 -24 -28 -63 -39 -87 -45 -101
-145 -232 -280 -367 -176 -177 -217 -211 -391 -328 -342 -229 -735 -387 -1169
-470 -217 -41 -262 -45 -540 -45 -291 0 -392 11 -603 65 -176 45 -401 144
-413 182 -3 10 4 77 15 150 12 73 29 191 39 262 l18 130 28 -60 c62 -134 201
-445 231 -520 l33 -80 53 -18 c29 -10 101 -26 159 -36 100 -17 105 -17 113 -1
7 13 -21 79 -103 246 -158 322 -204 419 -305 650 l-26 61 38 84 c34 75 135
277 297 594 59 116 69 152 39 140 -10 -3 -69 -20 -132 -35 -62 -16 -114 -31
-116 -32 -1 -2 -11 -17 -22 -33 -12 -17 -69 -125 -127 -240 -58 -116 -105
-201 -105 -190 0 11 4 52 9 90 6 39 15 111 20 160 5 50 12 107 16 128 5 33 4
37 -16 37 -20 0 -241 -47 -246 -53 -4 -3 -12 -75 -19 -157 -7 -91 -40 -367
-60 -510 -8 -58 -29 -213 -45 -345 -17 -131 -37 -252 -45 -267 -13 -27 -12
-29 33 -69 126 -111 316 -219 487 -277 154 -53 247 -74 450 -103 116 -17 505
-13 647 5 499 66 992 244 1373 494 457 301 726 630 817 1002 8 33 13 112 13
200 0 125 -3 155 -23 215 -40 120 -100 221 -186 312 -104 110 -186 170 -331
242 -168 84 -279 118 -517 162 -94 17 -162 21 -408 24 -162 2 -311 1 -330 -1z"/>
<path d="M983 3805 c-157 -31 -268 -102 -357 -230 -76 -107 -90 -148 -91 -255
0 -60 5 -108 14 -130 15 -36 65 -115 88 -138 7 -7 19 -22 27 -34 l15 -21 61
27 c61 27 312 95 529 142 220 47 353 144 407 296 22 62 22 240 -1 307 l-17 51
-306 -1 c-199 -1 -329 -6 -369 -14z m578 -245 c-2 -74 -8 -141 -14 -148 -6 -7
-20 -12 -31 -10 -20 3 -21 9 -20 96 1 52 -1 90 -5 85 -5 -4 -18 -42 -30 -83
-35 -117 -37 -122 -68 -118 -26 3 -29 8 -49 93 l-21 90 -4 -94 c-4 -77 -9 -96
-24 -107 -11 -8 -24 -13 -30 -11 -15 5 -19 275 -4 294 8 9 27 13 58 11 50 -3
44 6 74 -121 l13 -59 28 96 c16 53 34 100 40 105 14 12 46 19 71 18 19 -2 20
-8 16 -137z m-381 48 c24 -26 25 -32 5 -48 -11 -9 -22 -9 -49 0 -20 6 -45 9
-56 5 -29 -9 -50 -57 -50 -114 0 -43 4 -53 25 -67 21 -14 30 -14 55 -4 41 17
42 57 3 62 -39 4 -43 35 -7 48 15 6 44 10 63 8 l36 -3 -3 -65 c-4 -74 -18 -93
-84 -111 -52 -13 -83 -5 -119 31 -26 25 -29 35 -29 91 0 114 58 188 147 189
31 0 48 -6 63 -22z m-276 -49 c52 -41 19 -85 -40 -53 -27 15 -37 16 -58 6 -43
-19 -59 -127 -25 -169 18 -21 49 -15 86 17 38 34 51 37 60 14 17 -45 -56 -104
-129 -104 -39 0 -50 5 -72 30 -61 73 -36 210 49 261 40 25 96 24 129 -2z"/>
<path d="M2994 3785 c-133 -42 -261 -154 -348 -305 -73 -127 -152 -327 -177
-452 -69 -334 -97 -695 -68 -881 27 -174 135 -297 260 -297 56 0 140 42 194
98 46 47 110 160 140 247 20 56 36 195 28 238 -6 30 -11 31 -83 16 -42 -9 -51
-15 -55 -37 -23 -115 -81 -212 -125 -212 -27 0 -59 51 -70 111 -36 187 48 735
143 942 50 108 108 146 143 92 9 -13 21 -66 28 -117 6 -51 15 -98 19 -105 7
-12 43 -5 155 29 l32 10 0 319 0 319 -87 -1 c-49 -1 -106 -7 -129 -14z"/>
<path d="M4007 3433 c-17 -25 -53 -71 -78 -102 -64 -78 -163 -221 -177 -253
-17 -40 -6 -58 35 -58 l35 0 -6 -47 c-3 -27 -8 -79 -12 -118 -3 -38 -14 -136
-24 -216 -25 -194 -12 -249 71 -292 52 -28 159 -17 214 20 46 32 104 138 105
191 0 36 -6 39 -30 17 -25 -23 -81 -29 -103 -13 -24 18 -24 36 -4 178 8 63 18
157 22 209 8 116 16 139 52 146 15 4 42 12 59 20 27 12 32 19 37 61 3 27 3 63
0 82 -5 31 -7 33 -37 26 -17 -5 -44 -8 -61 -8 -30 -1 -30 0 -31 54 -2 136 -4
150 -19 150 -9 0 -30 -21 -48 -47z"/>
<path d="M2065 3361 c-16 -5 -59 -14 -95 -20 -98 -19 -106 -27 -114 -113 -4
-40 -25 -199 -46 -353 -40 -281 -53 -376 -71 -515 -6 -41 -14 -102 -19 -135
-10 -65 -26 -191 -34 -267 l-6 -48 81 0 c171 0 325 54 415 145 61 63 135 206
165 320 27 102 37 295 19 363 -19 67 -45 117 -76 141 -41 33 -124 29 -193 -9
l-53 -29 7 27 c4 15 15 74 26 132 19 111 29 161 54 275 8 38 15 76 15 82 0 14
-29 15 -75 4z m61 -722 c35 -39 21 -223 -26 -344 -37 -96 -116 -173 -147 -143
-11 11 -12 25 -4 64 10 55 24 147 41 274 6 47 16 98 22 113 21 55 80 74 114
36z"/>
<path d="M3390 3176 c-63 -18 -124 -51 -170 -92 -63 -58 -77 -88 -83 -189 -3
-49 -10 -103 -16 -118 -10 -26 -6 -24 46 22 106 91 207 161 235 161 35 0 58
-24 58 -63 0 -41 -76 -113 -190 -180 -108 -65 -130 -85 -162 -148 -40 -80 -50
-122 -50 -204 1 -154 88 -238 213 -205 54 14 105 47 152 96 l35 38 7 -37 c5
-25 12 -37 24 -36 29 1 125 25 177 44 51 19 52 19 58 69 3 28 6 65 6 82 0 30
-2 31 -37 30 l-38 -1 3 85 c1 47 6 108 11 136 17 92 24 335 12 382 -14 52 -62
108 -109 127 -41 18 -120 18 -182 1z m46 -608 c-8 -91 -35 -152 -80 -182 -34
-22 -52 -20 -70 6 -24 33 -20 98 7 131 19 24 136 125 146 126 2 1 0 -36 -3
-81z"/>
<path d="M1591 3032 c-20 -9 -43 -33 -54 -54 -35 -69 -18 -194 28 -212 43 -16
87 -6 120 27 66 66 71 163 10 224 -38 38 -56 40 -104 15z"/>
<path d="M588 2902 c-184 -286 -240 -597 -157 -869 36 -115 140 -303 168 -303
25 0 17 45 -18 103 -77 129 -114 235 -130 373 -25 212 43 464 181 667 32 47
37 61 28 73 -21 24 -34 16 -72 -44z"/>
<path d="M1624 2700 c-39 -10 -86 -25 -106 -33 -33 -14 -35 -16 -37 -73 -1
-33 -18 -169 -37 -304 -20 -135 -40 -274 -44 -310 -5 -36 -12 -72 -15 -81 -3
-9 1 -22 10 -29 13 -11 35 -12 111 -3 52 5 97 12 100 15 3 3 12 61 20 129 16
143 29 243 43 349 45 322 48 361 34 359 -5 0 -40 -9 -79 -19z"/>
</g>
</svg>
